<?xml version="1.0" encoding="utf-8" standalone="no"?>
<!DOCTYPE svg PUBLIC "-//W3C//DTD SVG 1.1//EN"
  "http://www.w3.org/Graphics/SVG/1.1/DTD/svg11.dtd">
<svg xmlns:xlink="http://www.w3.org/1999/xlink" width="513.268438pt" height="375.398906pt" viewBox="0 0 513.268438 375.398906" xmlns="http://www.w3.org/2000/svg" version="1.1">
 <metadata>
  <rdf:RDF xmlns:dc="http://purl.org/dc/elements/1.1/" xmlns:cc="http://creativecommons.org/ns#" xmlns:rdf="http://www.w3.org/1999/02/22-rdf-syntax-ns#">
   <cc:Work>
    <dc:type rdf:resource="http://purl.org/dc/dcmitype/StillImage"/>
    <dc:date>2026-09-09T10:29:49.643156</dc:date>
    <dc:format>image/svg+xml</dc:format>
    <dc:creator>
     <cc:Agent>
      <dc:title>Matplotlib v3.11.0, https://matplotlib.org/</dc:title>
     </cc:Agent>
    </dc:creator>
   </cc:Work>
  </rdf:RDF>
 </metadata>
 <defs>
  <style type="text/css">*{stroke-linejoin: round; stroke-linecap: butt}</style>
 </defs>
 <g id="figure_1">
  <g id="patch_1">
   <path d="M 0 375.398906 
L 513.268438 375.398906 
L 513.268438 0 
L 0 0 
z
" style="fill: #ffffff"/>
  </g>
  <g id="axes_1">
   <g id="patch_2">
    <path d="M 56.068438 331.597969 
L 502.468437 331.597969 
L 502.468437 26.677969 
L 56.068438 26.677969 
z
" style="fill: #ffffff"/>
   </g>
   <g id="matplotlib.axis_1">
    <g id="xtick_1">
     <g id="line2d_1">
      <path d="M 81.490525 331.597969 
L 81.490525 26.677969 
" clip-path="url(#p9a4c71f74f)" style="fill: none; stroke-dasharray: 0.8,1.32; stroke-dashoffset: 0; stroke: #b0b0b0; stroke-opacity: 0.3; stroke-width: 0.8"/>
     </g>
     <g id="line2d_2">
      <defs>
       <path id="mc934e46e1e" d="M 0 0 
L 0 3.5 
" style="stroke: #000000; stroke-width: 0.8"/>
      </defs>
      <g>
       <use xlink:href="#mc934e46e1e" x="81.490525" y="331.597969" style="stroke: #000000; stroke-width: 0.8"/>
      </g>
     </g>
     <g id="text_1">
      <!-- 0.0 -->
      <g transform="translate(73.538962 346.195625) scale(0.1 -0.1)">
       <defs>
        <path id="DejaVuSans-13" d="M 2034 4250 
Q 1547 4250 1301 3770 
Q 1056 3291 1056 2328 
Q 1056 1369 1301 889 
Q 1547 409 2034 409 
Q 2525 409 2770 889 
Q 3016 1369 3016 2328 
Q 3016 3291 2770 3770 
Q 2525 4250 2034 4250 
z
M 2034 4750 
Q 2819 4750 3233 4129 
Q 3647 3509 3647 2328 
Q 3647 1150 3233 529 
Q 2819 -91 2034 -91 
Q 1250 -91 836 529 
Q 422 1150 422 2328 
Q 422 3509 836 4129 
Q 1250 4750 2034 4750 
z
" transform="scale(0.015625)"/>
        <path id="DejaVuSans-11" d="M 684 794 
L 1344 794 
L 1344 0 
L 684 0 
L 684 794 
z
" transform="scale(0.015625)"/>
       </defs>
       <use xlink:href="#DejaVuSans-13"/>
       <use xlink:href="#DejaVuSans-11" transform="translate(63.625 0)"/>
       <use xlink:href="#DejaVuSans-13" transform="translate(95.40625 0)"/>
      </g>
     </g>
    </g>
    <g id="xtick_2">
     <g id="line2d_3">
      <path d="M 166.230815 331.597969 
L 166.230815 26.677969 
" clip-path="url(#p9a4c71f74f)" style="fill: none; stroke-dasharray: 0.8,1.32; stroke-dashoffset: 0; stroke: #b0b0b0; stroke-opacity: 0.3; stroke-width: 0.8"/>
     </g>
     <g id="line2d_4">
      <g>
       <use xlink:href="#mc934e46e1e" x="166.230815" y="331.597969" style="stroke: #000000; stroke-width: 0.8"/>
      </g>
     </g>
     <g id="text_2">
      <!-- 0.5 -->
      <g transform="translate(158.279253 346.195625) scale(0.1 -0.1)">
       <defs>
        <path id="DejaVuSans-18" d="M 691 4666 
L 3169 4666 
L 3169 4134 
L 1269 4134 
L 1269 2991 
Q 1406 3038 1543 3061 
Q 1681 3084 1819 3084 
Q 2600 3084 3056 2656 
Q 3513 2228 3513 1497 
Q 3513 744 3044 326 
Q 2575 -91 1722 -91 
Q 1428 -91 1123 -41 
Q 819 9 494 109 
L 494 744 
Q 775 591 1075 516 
Q 1375 441 1709 441 
Q 2250 441 2565 725 
Q 2881 1009 2881 1497 
Q 2881 1984 2565 2268 
Q 2250 2553 1709 2553 
Q 1456 2553 1204 2497 
Q 953 2441 691 2322 
L 691 4666 
z
" transform="scale(0.015625)"/>
       </defs>
       <use xlink:href="#DejaVuSans-13"/>
       <use xlink:href="#DejaVuSans-11" transform="translate(63.625 0)"/>
       <use xlink:href="#DejaVuSans-18" transform="translate(95.40625 0)"/>
      </g>
     </g>
    </g>
    <g id="xtick_3">
     <g id="line2d_5">
      <path d="M 250.971106 331.597969 
L 250.971106 26.677969 
" clip-path="url(#p9a4c71f74f)" style="fill: none; stroke-dasharray: 0.8,1.32; stroke-dashoffset: 0; stroke: #b0b0b0; stroke-opacity: 0.3; stroke-width: 0.8"/>
     </g>
     <g id="line2d_6">
      <g>
       <use xlink:href="#mc934e46e1e" x="250.971106" y="331.597969" style="stroke: #000000; stroke-width: 0.8"/>
      </g>
     </g>
     <g id="text_3">
      <!-- 1.0 -->
      <g transform="translate(243.019543 346.195625) scale(0.1 -0.1)">
       <defs>
        <path id="DejaVuSans-14" d="M 794 531 
L 1825 531 
L 1825 4091 
L 703 3866 
L 703 4441 
L 1819 4666 
L 2450 4666 
L 2450 531 
L 3481 531 
L 3481 0 
L 794 0 
L 794 531 
z
" transform="scale(0.015625)"/>
       </defs>
       <use xlink:href="#DejaVuSans-14"/>
       <use xlink:href="#DejaVuSans-11" transform="translate(63.625 0)"/>
       <use xlink:href="#DejaVuSans-13" transform="translate(95.40625 0)"/>
      </g>
     </g>
    </g>
    <g id="xtick_4">
     <g id="line2d_7">
      <path d="M 335.711396 331.597969 
L 335.711396 26.677969 
" clip-path="url(#p9a4c71f74f)" style="fill: none; stroke-dasharray: 0.8,1.32; stroke-dashoffset: 0; stroke: #b0b0b0; stroke-opacity: 0.3; stroke-width: 0.8"/>
     </g>
     <g id="line2d_8">
      <g>
       <use xlink:href="#mc934e46e1e" x="335.711396" y="331.597969" style="stroke: #000000; stroke-width: 0.8"/>
      </g>
     </g>
     <g id="text_4">
      <!-- 1.5 -->
      <g transform="translate(327.759834 346.195625) scale(0.1 -0.1)">
       <use xlink:href="#DejaVuSans-14"/>
       <use xlink:href="#DejaVuSans-11" transform="translate(63.625 0)"/>
       <use xlink:href="#DejaVuSans-18" transform="translate(95.40625 0)"/>
      </g>
     </g>
    </g>
    <g id="xtick_5">
     <g id="line2d_9">
      <path d="M 420.451687 331.597969 
L 420.451687 26.677969 
" clip-path="url(#p9a4c71f74f)" style="fill: none; stroke-dasharray: 0.8,1.32; stroke-dashoffset: 0; stroke: #b0b0b0; stroke-opacity: 0.3; stroke-width: 0.8"/>
     </g>
     <g id="line2d_10">
      <g>
       <use xlink:href="#mc934e46e1e" x="420.451687" y="331.597969" style="stroke: #000000; stroke-width: 0.8"/>
      </g>
     </g>
     <g id="text_5">
      <!-- 2.0 -->
      <g transform="translate(412.500124 346.195625) scale(0.1 -0.1)">
       <defs>
        <path id="DejaVuSans-15" d="M 1228 531 
L 3431 531 
L 3431 0 
L 469 0 
L 469 531 
Q 828 903 1448 1529 
Q 2069 2156 2228 2338 
Q 2531 2678 2651 2914 
Q 2772 3150 2772 3378 
Q 2772 3750 2511 3984 
Q 2250 4219 1831 4219 
Q 1534 4219 1204 4116 
Q 875 4013 500 3803 
L 500 4441 
Q 881 4594 1212 4672 
Q 1544 4750 1819 4750 
Q 2544 4750 2975 4387 
Q 3406 4025 3406 3419 
Q 3406 3131 3298 2873 
Q 3191 2616 2906 2266 
Q 2828 2175 2409 1742 
Q 1991 1309 1228 531 
z
" transform="scale(0.015625)"/>
       </defs>
       <use xlink:href="#DejaVuSans-15"/>
       <use xlink:href="#DejaVuSans-11" transform="translate(63.625 0)"/>
       <use xlink:href="#DejaVuSans-13" transform="translate(95.40625 0)"/>
      </g>
     </g>
    </g>
    <g id="text_6">
     <!-- Cumulative Adaptation Cost (seconds) -->
     <g transform="translate(163.940938 361.716094) scale(0.12 -0.12)">
      <defs>
       <path id="DejaVuSans-26" d="M 4122 4306 
L 4122 3641 
Q 3803 3938 3442 4084 
Q 3081 4231 2675 4231 
Q 1875 4231 1450 3742 
Q 1025 3253 1025 2328 
Q 1025 1406 1450 917 
Q 1875 428 2675 428 
Q 3081 428 3442 575 
Q 3803 722 4122 1019 
L 4122 359 
Q 3791 134 3420 21 
Q 3050 -91 2638 -91 
Q 1578 -91 968 557 
Q 359 1206 359 2328 
Q 359 3453 968 4101 
Q 1578 4750 2638 4750 
Q 3056 4750 3426 4639 
Q 3797 4528 4122 4306 
z
" transform="scale(0.015625)"/>
       <path id="DejaVuSans-58" d="M 544 1381 
L 544 3500 
L 1119 3500 
L 1119 1403 
Q 1119 906 1312 657 
Q 1506 409 1894 409 
Q 2359 409 2629 706 
Q 2900 1003 2900 1516 
L 2900 3500 
L 3475 3500 
L 3475 0 
L 2900 0 
L 2900 538 
Q 2691 219 2414 64 
Q 2138 -91 1772 -91 
Q 1169 -91 856 284 
Q 544 659 544 1381 
z
M 1991 3584 
L 1991 3584 
z
" transform="scale(0.015625)"/>
       <path id="DejaVuSans-50" d="M 3328 2828 
Q 3544 3216 3844 3400 
Q 4144 3584 4550 3584 
Q 5097 3584 5394 3201 
Q 5691 2819 5691 2113 
L 5691 0 
L 5113 0 
L 5113 2094 
Q 5113 2597 4934 2840 
Q 4756 3084 4391 3084 
Q 3944 3084 3684 2787 
Q 3425 2491 3425 1978 
L 3425 0 
L 2847 0 
L 2847 2094 
Q 2847 2600 2669 2842 
Q 2491 3084 2119 3084 
Q 1678 3084 1418 2786 
Q 1159 2488 1159 1978 
L 1159 0 
L 581 0 
L 581 3500 
L 1159 3500 
L 1159 2956 
Q 1356 3278 1631 3431 
Q 1906 3584 2284 3584 
Q 2666 3584 2933 3390 
Q 3200 3197 3328 2828 
z
" transform="scale(0.015625)"/>
       <path id="DejaVuSans-4f" d="M 603 4863 
L 1178 4863 
L 1178 0 
L 603 0 
L 603 4863 
z
" transform="scale(0.015625)"/>
       <path id="DejaVuSans-44" d="M 2194 1759 
Q 1497 1759 1228 1600 
Q 959 1441 959 1056 
Q 959 750 1161 570 
Q 1363 391 1709 391 
Q 2188 391 2477 730 
Q 2766 1069 2766 1631 
L 2766 1759 
L 2194 1759 
z
M 3341 1997 
L 3341 0 
L 2766 0 
L 2766 531 
Q 2569 213 2275 61 
Q 1981 -91 1556 -91 
Q 1019 -91 701 211 
Q 384 513 384 1019 
Q 384 1609 779 1909 
Q 1175 2209 1959 2209 
L 2766 2209 
L 2766 2266 
Q 2766 2663 2505 2880 
Q 2244 3097 1772 3097 
Q 1472 3097 1187 3025 
Q 903 2953 641 2809 
L 641 3341 
Q 956 3463 1253 3523 
Q 1550 3584 1831 3584 
Q 2591 3584 2966 3190 
Q 3341 2797 3341 1997 
z
" transform="scale(0.015625)"/>
       <path id="DejaVuSans-57" d="M 1172 4494 
L 1172 3500 
L 2356 3500 
L 2356 3053 
L 1172 3053 
L 1172 1153 
Q 1172 725 1289 603 
Q 1406 481 1766 481 
L 2356 481 
L 2356 0 
L 1766 0 
Q 1100 0 847 248 
Q 594 497 594 1153 
L 594 3053 
L 172 3053 
L 172 3500 
L 594 3500 
L 594 4494 
L 1172 4494 
z
" transform="scale(0.015625)"/>
       <path id="DejaVuSans-4c" d="M 603 3500 
L 1178 3500 
L 1178 0 
L 603 0 
L 603 3500 
z
M 603 4863 
L 1178 4863 
L 1178 4134 
L 603 4134 
L 603 4863 
z
" transform="scale(0.015625)"/>
       <path id="DejaVuSans-59" d="M 191 3500 
L 800 3500 
L 1894 563 
L 2988 3500 
L 3597 3500 
L 2284 0 
L 1503 0 
L 191 3500 
z
" transform="scale(0.015625)"/>
       <path id="DejaVuSans-48" d="M 3597 1894 
L 3597 1613 
L 953 1613 
Q 991 1019 1311 708 
Q 1631 397 2203 397 
Q 2534 397 2845 478 
Q 3156 559 3463 722 
L 3463 178 
Q 3153 47 2828 -22 
Q 2503 -91 2169 -91 
Q 1331 -91 842 396 
Q 353 884 353 1716 
Q 353 2575 817 3079 
Q 1281 3584 2069 3584 
Q 2775 3584 3186 3129 
Q 3597 2675 3597 1894 
z
M 3022 2063 
Q 3016 2534 2758 2815 
Q 2500 3097 2075 3097 
Q 1594 3097 1305 2825 
Q 1016 2553 972 2059 
L 3022 2063 
z
" transform="scale(0.015625)"/>
       <path id="DejaVuSans-3" transform="scale(0.015625)"/>
       <path id="DejaVuSans-24" d="M 2188 4044 
L 1331 1722 
L 3047 1722 
L 2188 4044 
z
M 1831 4666 
L 2547 4666 
L 4325 0 
L 3669 0 
L 3244 1197 
L 1141 1197 
L 716 0 
L 50 0 
L 1831 4666 
z
" transform="scale(0.015625)"/>
       <path id="DejaVuSans-47" d="M 2906 2969 
L 2906 4863 
L 3481 4863 
L 3481 0 
L 2906 0 
L 2906 525 
Q 2725 213 2448 61 
Q 2172 -91 1784 -91 
Q 1150 -91 751 415 
Q 353 922 353 1747 
Q 353 2572 751 3078 
Q 1150 3584 1784 3584 
Q 2172 3584 2448 3432 
Q 2725 3281 2906 2969 
z
M 947 1747 
Q 947 1113 1208 752 
Q 1469 391 1925 391 
Q 2381 391 2643 752 
Q 2906 1113 2906 1747 
Q 2906 2381 2643 2742 
Q 2381 3103 1925 3103 
Q 1469 3103 1208 2742 
Q 947 2381 947 1747 
z
" transform="scale(0.015625)"/>
       <path id="DejaVuSans-53" d="M 1159 525 
L 1159 -1331 
L 581 -1331 
L 581 3500 
L 1159 3500 
L 1159 2969 
Q 1341 3281 1617 3432 
Q 1894 3584 2278 3584 
Q 2916 3584 3314 3078 
Q 3713 2572 3713 1747 
Q 3713 922 3314 415 
Q 2916 -91 2278 -91 
Q 1894 -91 1617 61 
Q 1341 213 1159 525 
z
M 3116 1747 
Q 3116 2381 2855 2742 
Q 2594 3103 2138 3103 
Q 1681 3103 1420 2742 
Q 1159 2381 1159 1747 
Q 1159 1113 1420 752 
Q 1681 391 2138 391 
Q 2594 391 2855 752 
Q 3116 1113 3116 1747 
z
" transform="scale(0.015625)"/>
       <path id="DejaVuSans-52" d="M 1959 3097 
Q 1497 3097 1228 2736 
Q 959 2375 959 1747 
Q 959 1119 1226 758 
Q 1494 397 1959 397 
Q 2419 397 2687 759 
Q 2956 1122 2956 1747 
Q 2956 2369 2687 2733 
Q 2419 3097 1959 3097 
z
M 1959 3584 
Q 2709 3584 3137 3096 
Q 3566 2609 3566 1747 
Q 3566 888 3137 398 
Q 2709 -91 1959 -91 
Q 1206 -91 779 398 
Q 353 888 353 1747 
Q 353 2609 779 3096 
Q 1206 3584 1959 3584 
z
" transform="scale(0.015625)"/>
       <path id="DejaVuSans-51" d="M 3513 2113 
L 3513 0 
L 2938 0 
L 2938 2094 
Q 2938 2591 2744 2837 
Q 2550 3084 2163 3084 
Q 1697 3084 1428 2787 
Q 1159 2491 1159 1978 
L 1159 0 
L 581 0 
L 581 3500 
L 1159 3500 
L 1159 2956 
Q 1366 3272 1645 3428 
Q 1925 3584 2291 3584 
Q 2894 3584 3203 3211 
Q 3513 2838 3513 2113 
z
" transform="scale(0.015625)"/>
       <path id="DejaVuSans-56" d="M 2834 3397 
L 2834 2853 
Q 2591 2978 2328 3040 
Q 2066 3103 1784 3103 
Q 1356 3103 1142 2972 
Q 928 2841 928 2578 
Q 928 2378 1081 2264 
Q 1234 2150 1697 2047 
L 1894 2003 
Q 2506 1872 2764 1633 
Q 3022 1394 3022 966 
Q 3022 478 2636 193 
Q 2250 -91 1575 -91 
Q 1294 -91 989 -36 
Q 684 19 347 128 
L 347 722 
Q 666 556 975 473 
Q 1284 391 1588 391 
Q 1994 391 2212 530 
Q 2431 669 2431 922 
Q 2431 1156 2273 1281 
Q 2116 1406 1581 1522 
L 1381 1569 
Q 847 1681 609 1914 
Q 372 2147 372 2553 
Q 372 3047 722 3315 
Q 1072 3584 1716 3584 
Q 2034 3584 2315 3537 
Q 2597 3491 2834 3397 
z
" transform="scale(0.015625)"/>
       <path id="DejaVuSans-b" d="M 1984 4856 
Q 1566 4138 1362 3434 
Q 1159 2731 1159 2009 
Q 1159 1288 1364 580 
Q 1569 -128 1984 -844 
L 1484 -844 
Q 1016 -109 783 600 
Q 550 1309 550 2009 
Q 550 2706 781 3412 
Q 1013 4119 1484 4856 
L 1984 4856 
z
" transform="scale(0.015625)"/>
       <path id="DejaVuSans-46" d="M 3122 3366 
L 3122 2828 
Q 2878 2963 2633 3030 
Q 2388 3097 2138 3097 
Q 1578 3097 1268 2742 
Q 959 2388 959 1747 
Q 959 1106 1268 751 
Q 1578 397 2138 397 
Q 2388 397 2633 464 
Q 2878 531 3122 666 
L 3122 134 
Q 2881 22 2623 -34 
Q 2366 -91 2075 -91 
Q 1284 -91 818 406 
Q 353 903 353 1747 
Q 353 2603 823 3093 
Q 1294 3584 2113 3584 
Q 2378 3584 2631 3529 
Q 2884 3475 3122 3366 
z
" transform="scale(0.015625)"/>
       <path id="DejaVuSans-c" d="M 513 4856 
L 1013 4856 
Q 1481 4119 1714 3412 
Q 1947 2706 1947 2009 
Q 1947 1309 1714 600 
Q 1481 -109 1013 -844 
L 513 -844 
Q 928 -128 1133 580 
Q 1338 1288 1338 2009 
Q 1338 2731 1133 3434 
Q 928 4138 513 4856 
z
" transform="scale(0.015625)"/>
      </defs>
      <use xlink:href="#DejaVuSans-26"/>
      <use xlink:href="#DejaVuSans-58" transform="translate(69.828125 0)"/>
      <use xlink:href="#DejaVuSans-50" transform="translate(133.203125 0)"/>
      <use xlink:href="#DejaVuSans-58" transform="translate(230.609375 0)"/>
      <use xlink:href="#DejaVuSans-4f" transform="translate(293.984375 0)"/>
      <use xlink:href="#DejaVuSans-44" transform="translate(321.765625 0)"/>
      <use xlink:href="#DejaVuSans-57" transform="translate(383.046875 0)"/>
      <use xlink:href="#DejaVuSans-4c" transform="translate(422.25 0)"/>
      <use xlink:href="#DejaVuSans-59" transform="translate(450.03125 0)"/>
      <use xlink:href="#DejaVuSans-48" transform="translate(509.21875 0)"/>
      <use xlink:href="#DejaVuSans-3" transform="translate(570.75 0)"/>
      <use xlink:href="#DejaVuSans-24" transform="translate(602.53125 0)"/>
      <use xlink:href="#DejaVuSans-47" transform="translate(669.1875 0)"/>
      <use xlink:href="#DejaVuSans-44" transform="translate(732.671875 0)"/>
      <use xlink:href="#DejaVuSans-53" transform="translate(793.953125 0)"/>
      <use xlink:href="#DejaVuSans-57" transform="translate(857.4375 0)"/>
      <use xlink:href="#DejaVuSans-44" transform="translate(896.640625 0)"/>
      <use xlink:href="#DejaVuSans-57" transform="translate(957.921875 0)"/>
      <use xlink:href="#DejaVuSans-4c" transform="translate(997.125 0)"/>
      <use xlink:href="#DejaVuSans-52" transform="translate(1024.90625 0)"/>
      <use xlink:href="#DejaVuSans-51" transform="translate(1086.09375 0)"/>
      <use xlink:href="#DejaVuSans-3" transform="translate(1149.46875 0)"/>
      <use xlink:href="#DejaVuSans-26" transform="translate(1181.25 0)"/>
      <use xlink:href="#DejaVuSans-52" transform="translate(1251.078125 0)"/>
      <use xlink:href="#DejaVuSans-56" transform="translate(1312.265625 0)"/>
      <use xlink:href="#DejaVuSans-57" transform="translate(1364.359375 0)"/>
      <use xlink:href="#DejaVuSans-3" transform="translate(1403.5625 0)"/>
      <use xlink:href="#DejaVuSans-b" transform="translate(1435.34375 0)"/>
      <use xlink:href="#DejaVuSans-56" transform="translate(1474.359375 0)"/>
      <use xlink:href="#DejaVuSans-48" transform="translate(1526.453125 0)"/>
      <use xlink:href="#DejaVuSans-46" transform="translate(1587.984375 0)"/>
      <use xlink:href="#DejaVuSans-52" transform="translate(1642.96875 0)"/>
      <use xlink:href="#DejaVuSans-51" transform="translate(1704.15625 0)"/>
      <use xlink:href="#DejaVuSans-47" transform="translate(1767.53125 0)"/>
      <use xlink:href="#DejaVuSans-56" transform="translate(1831.015625 0)"/>
      <use xlink:href="#DejaVuSans-c" transform="translate(1883.109375 0)"/>
     </g>
    </g>
   </g>
   <g id="matplotlib.axis_2">
    <g id="ytick_1">
     <g id="line2d_11">
      <path d="M 56.068438 285.736758 
L 502.468437 285.736758 
" clip-path="url(#p9a4c71f74f)" style="fill: none; stroke-dasharray: 0.8,1.32; stroke-dashoffset: 0; stroke: #b0b0b0; stroke-opacity: 0.3; stroke-width: 0.8"/>
     </g>
     <g id="line2d_12">
      <defs>
       <path id="mc897eb14a0" d="M 0 0 
L -3.5 0 
" style="stroke: #000000; stroke-width: 0.8"/>
      </defs>
      <g>
       <use xlink:href="#mc897eb14a0" x="56.068438" y="285.736758" style="stroke: #000000; stroke-width: 0.8"/>
      </g>
     </g>
     <g id="text_7">
      <!-- 0.44 -->
      <g transform="translate(26.802813 289.535586) scale(0.1 -0.1)">
       <defs>
        <path id="DejaVuSans-17" d="M 2419 4116 
L 825 1625 
L 2419 1625 
L 2419 4116 
z
M 2253 4666 
L 3047 4666 
L 3047 1625 
L 3713 1625 
L 3713 1100 
L 3047 1100 
L 3047 0 
L 2419 0 
L 2419 1100 
L 313 1100 
L 313 1709 
L 2253 4666 
z
" transform="scale(0.015625)"/>
       </defs>
       <use xlink:href="#DejaVuSans-13"/>
       <use xlink:href="#DejaVuSans-11" transform="translate(63.625 0)"/>
       <use xlink:href="#DejaVuSans-17" transform="translate(95.40625 0)"/>
       <use xlink:href="#DejaVuSans-17" transform="translate(159.03125 0)"/>
      </g>
     </g>
    </g>
    <g id="ytick_2">
     <g id="line2d_13">
      <path d="M 56.068438 239.230875 
L 502.468437 239.230875 
" clip-path="url(#p9a4c71f74f)" style="fill: none; stroke-dasharray: 0.8,1.32; stroke-dashoffset: 0; stroke: #b0b0b0; stroke-opacity: 0.3; stroke-width: 0.8"/>
     </g>
     <g id="line2d_14">
      <g>
       <use xlink:href="#mc897eb14a0" x="56.068438" y="239.230875" style="stroke: #000000; stroke-width: 0.8"/>
      </g>
     </g>
     <g id="text_8">
      <!-- 0.46 -->
      <g transform="translate(26.802813 243.029703) scale(0.1 -0.1)">
       <defs>
        <path id="DejaVuSans-19" d="M 2113 2584 
Q 1688 2584 1439 2293 
Q 1191 2003 1191 1497 
Q 1191 994 1439 701 
Q 1688 409 2113 409 
Q 2538 409 2786 701 
Q 3034 994 3034 1497 
Q 3034 2003 2786 2293 
Q 2538 2584 2113 2584 
z
M 3366 4563 
L 3366 3988 
Q 3128 4100 2886 4159 
Q 2644 4219 2406 4219 
Q 1781 4219 1451 3797 
Q 1122 3375 1075 2522 
Q 1259 2794 1537 2939 
Q 1816 3084 2150 3084 
Q 2853 3084 3261 2657 
Q 3669 2231 3669 1497 
Q 3669 778 3244 343 
Q 2819 -91 2113 -91 
Q 1303 -91 875 529 
Q 447 1150 447 2328 
Q 447 3434 972 4092 
Q 1497 4750 2381 4750 
Q 2619 4750 2861 4703 
Q 3103 4656 3366 4563 
z
" transform="scale(0.015625)"/>
       </defs>
       <use xlink:href="#DejaVuSans-13"/>
       <use xlink:href="#DejaVuSans-11" transform="translate(63.625 0)"/>
       <use xlink:href="#DejaVuSans-17" transform="translate(95.40625 0)"/>
       <use xlink:href="#DejaVuSans-19" transform="translate(159.03125 0)"/>
      </g>
     </g>
    </g>
    <g id="ytick_3">
     <g id="line2d_15">
      <path d="M 56.068438 192.724991 
L 502.468437 192.724991 
" clip-path="url(#p9a4c71f74f)" style="fill: none; stroke-dasharray: 0.8,1.32; stroke-dashoffset: 0; stroke: #b0b0b0; stroke-opacity: 0.3; stroke-width: 0.8"/>
     </g>
     <g id="line2d_16">
      <g>
       <use xlink:href="#mc897eb14a0" x="56.068438" y="192.724991" style="stroke: #000000; stroke-width: 0.8"/>
      </g>
     </g>
     <g id="text_9">
      <!-- 0.48 -->
      <g transform="translate(26.802813 196.523819) scale(0.1 -0.1)">
       <defs>
        <path id="DejaVuSans-1b" d="M 2034 2216 
Q 1584 2216 1326 1975 
Q 1069 1734 1069 1313 
Q 1069 891 1326 650 
Q 1584 409 2034 409 
Q 2484 409 2743 651 
Q 3003 894 3003 1313 
Q 3003 1734 2745 1975 
Q 2488 2216 2034 2216 
z
M 1403 2484 
Q 997 2584 770 2862 
Q 544 3141 544 3541 
Q 544 4100 942 4425 
Q 1341 4750 2034 4750 
Q 2731 4750 3128 4425 
Q 3525 4100 3525 3541 
Q 3525 3141 3298 2862 
Q 3072 2584 2669 2484 
Q 3125 2378 3379 2068 
Q 3634 1759 3634 1313 
Q 3634 634 3220 271 
Q 2806 -91 2034 -91 
Q 1263 -91 848 271 
Q 434 634 434 1313 
Q 434 1759 690 2068 
Q 947 2378 1403 2484 
z
M 1172 3481 
Q 1172 3119 1398 2916 
Q 1625 2713 2034 2713 
Q 2441 2713 2670 2916 
Q 2900 3119 2900 3481 
Q 2900 3844 2670 4047 
Q 2441 4250 2034 4250 
Q 1625 4250 1398 4047 
Q 1172 3844 1172 3481 
z
" transform="scale(0.015625)"/>
       </defs>
       <use xlink:href="#DejaVuSans-13"/>
       <use xlink:href="#DejaVuSans-11" transform="translate(63.625 0)"/>
       <use xlink:href="#DejaVuSans-17" transform="translate(95.40625 0)"/>
       <use xlink:href="#DejaVuSans-1b" transform="translate(159.03125 0)"/>
      </g>
     </g>
    </g>
    <g id="ytick_4">
     <g id="line2d_17">
      <path d="M 56.068438 146.219108 
L 502.468437 146.219108 
" clip-path="url(#p9a4c71f74f)" style="fill: none; stroke-dasharray: 0.8,1.32; stroke-dashoffset: 0; stroke: #b0b0b0; stroke-opacity: 0.3; stroke-width: 0.8"/>
     </g>
     <g id="line2d_18">
      <g>
       <use xlink:href="#mc897eb14a0" x="56.068438" y="146.219108" style="stroke: #000000; stroke-width: 0.8"/>
      </g>
     </g>
     <g id="text_10">
      <!-- 0.50 -->
      <g transform="translate(26.802813 150.017936) scale(0.1 -0.1)">
       <use xlink:href="#DejaVuSans-13"/>
       <use xlink:href="#DejaVuSans-11" transform="translate(63.625 0)"/>
       <use xlink:href="#DejaVuSans-18" transform="translate(95.40625 0)"/>
       <use xlink:href="#DejaVuSans-13" transform="translate(159.03125 0)"/>
      </g>
     </g>
    </g>
    <g id="ytick_5">
     <g id="line2d_19">
      <path d="M 56.068438 99.713224 
L 502.468437 99.713224 
" clip-path="url(#p9a4c71f74f)" style="fill: none; stroke-dasharray: 0.8,1.32; stroke-dashoffset: 0; stroke: #b0b0b0; stroke-opacity: 0.3; stroke-width: 0.8"/>
     </g>
     <g id="line2d_20">
      <g>
       <use xlink:href="#mc897eb14a0" x="56.068438" y="99.713224" style="stroke: #000000; stroke-width: 0.8"/>
      </g>
     </g>
     <g id="text_11">
      <!-- 0.52 -->
      <g transform="translate(26.802813 103.512053) scale(0.1 -0.1)">
       <use xlink:href="#DejaVuSans-13"/>
       <use xlink:href="#DejaVuSans-11" transform="translate(63.625 0)"/>
       <use xlink:href="#DejaVuSans-18" transform="translate(95.40625 0)"/>
       <use xlink:href="#DejaVuSans-15" transform="translate(159.03125 0)"/>
      </g>
     </g>
    </g>
    <g id="ytick_6">
     <g id="line2d_21">
      <path d="M 56.068438 53.207341 
L 502.468437 53.207341 
" clip-path="url(#p9a4c71f74f)" style="fill: none; stroke-dasharray: 0.8,1.32; stroke-dashoffset: 0; stroke: #b0b0b0; stroke-opacity: 0.3; stroke-width: 0.8"/>
     </g>
     <g id="line2d_22">
      <g>
       <use xlink:href="#mc897eb14a0" x="56.068438" y="53.207341" style="stroke: #000000; stroke-width: 0.8"/>
      </g>
     </g>
     <g id="text_12">
      <!-- 0.54 -->
      <g transform="translate(26.802813 57.006169) scale(0.1 -0.1)">
       <use xlink:href="#DejaVuSans-13"/>
       <use xlink:href="#DejaVuSans-11" transform="translate(63.625 0)"/>
       <use xlink:href="#DejaVuSans-18" transform="translate(95.40625 0)"/>
       <use xlink:href="#DejaVuSans-17" transform="translate(159.03125 0)"/>
      </g>
     </g>
    </g>
    <g id="text_13">
     <!-- Mean F1 Score (10 seeds $\times$ 6 drift levels) -->
     <g transform="translate(19.92 303.157969) rotate(-90) scale(0.12 -0.12)">
      <defs>
       <path id="DejaVuSans-30" d="M 628 4666 
L 1569 4666 
L 2759 1491 
L 3956 4666 
L 4897 4666 
L 4897 0 
L 4281 0 
L 4281 4097 
L 3078 897 
L 2444 897 
L 1241 4097 
L 1241 0 
L 628 0 
L 628 4666 
z
" transform="scale(0.015625)"/>
       <path id="DejaVuSans-29" d="M 628 4666 
L 3309 4666 
L 3309 4134 
L 1259 4134 
L 1259 2759 
L 3109 2759 
L 3109 2228 
L 1259 2228 
L 1259 0 
L 628 0 
L 628 4666 
z
" transform="scale(0.015625)"/>
       <path id="DejaVuSans-36" d="M 3425 4513 
L 3425 3897 
Q 3066 4069 2747 4153 
Q 2428 4238 2131 4238 
Q 1616 4238 1336 4038 
Q 1056 3838 1056 3469 
Q 1056 3159 1242 3001 
Q 1428 2844 1947 2747 
L 2328 2669 
Q 3034 2534 3370 2195 
Q 3706 1856 3706 1288 
Q 3706 609 3251 259 
Q 2797 -91 1919 -91 
Q 1588 -91 1214 -16 
Q 841 59 441 206 
L 441 856 
Q 825 641 1194 531 
Q 1563 422 1919 422 
Q 2459 422 2753 634 
Q 3047 847 3047 1241 
Q 3047 1584 2836 1778 
Q 2625 1972 2144 2069 
L 1759 2144 
Q 1053 2284 737 2584 
Q 422 2884 422 3419 
Q 422 4038 858 4394 
Q 1294 4750 2059 4750 
Q 2388 4750 2728 4690 
Q 3069 4631 3425 4513 
z
" transform="scale(0.015625)"/>
       <path id="DejaVuSans-55" d="M 2631 2963 
Q 2534 3019 2420 3045 
Q 2306 3072 2169 3072 
Q 1681 3072 1420 2755 
Q 1159 2438 1159 1844 
L 1159 0 
L 581 0 
L 581 3500 
L 1159 3500 
L 1159 2956 
Q 1341 3275 1631 3429 
Q 1922 3584 2338 3584 
Q 2397 3584 2469 3576 
Q 2541 3569 2628 3553 
L 2631 2963 
z
" transform="scale(0.015625)"/>
       <path id="DejaVuSans-99" d="M 4488 3438 
L 3059 2003 
L 4488 575 
L 4116 197 
L 2681 1631 
L 1247 197 
L 878 575 
L 2303 2003 
L 878 3438 
L 1247 3816 
L 2681 2381 
L 4116 3816 
L 4488 3438 
z
" transform="scale(0.015625)"/>
       <path id="DejaVuSans-49" d="M 2375 4863 
L 2375 4384 
L 1825 4384 
Q 1516 4384 1395 4259 
Q 1275 4134 1275 3809 
L 1275 3500 
L 2222 3500 
L 2222 3053 
L 1275 3053 
L 1275 0 
L 697 0 
L 697 3053 
L 147 3053 
L 147 3500 
L 697 3500 
L 697 3744 
Q 697 4328 969 4595 
Q 1241 4863 1831 4863 
L 2375 4863 
z
" transform="scale(0.015625)"/>
      </defs>
      <use xlink:href="#DejaVuSans-30" transform="translate(0 0.015625)"/>
      <use xlink:href="#DejaVuSans-48" transform="translate(86.279297 0.015625)"/>
      <use xlink:href="#DejaVuSans-44" transform="translate(147.802734 0.015625)"/>
      <use xlink:href="#DejaVuSans-51" transform="translate(209.082031 0.015625)"/>
      <use xlink:href="#DejaVuSans-3" transform="translate(272.460938 0.015625)"/>
      <use xlink:href="#DejaVuSans-29" transform="translate(304.248047 0.015625)"/>
      <use xlink:href="#DejaVuSans-14" transform="translate(361.767578 0.015625)"/>
      <use xlink:href="#DejaVuSans-3" transform="translate(425.390625 0.015625)"/>
      <use xlink:href="#DejaVuSans-36" transform="translate(457.177734 0.015625)"/>
      <use xlink:href="#DejaVuSans-46" transform="translate(520.654297 0.015625)"/>
      <use xlink:href="#DejaVuSans-52" transform="translate(575.634766 0.015625)"/>
      <use xlink:href="#DejaVuSans-55" transform="translate(636.816406 0.015625)"/>
      <use xlink:href="#DejaVuSans-48" transform="translate(675.929688 0.015625)"/>
      <use xlink:href="#DejaVuSans-3" transform="translate(737.453125 0.015625)"/>
      <use xlink:href="#DejaVuSans-b" transform="translate(769.240234 0.015625)"/>
      <use xlink:href="#DejaVuSans-14" transform="translate(808.253906 0.015625)"/>
      <use xlink:href="#DejaVuSans-13" transform="translate(871.876953 0.015625)"/>
      <use xlink:href="#DejaVuSans-3" transform="translate(935.5 0.015625)"/>
      <use xlink:href="#DejaVuSans-56" transform="translate(967.287109 0.015625)"/>
      <use xlink:href="#DejaVuSans-48" transform="translate(1019.386719 0.015625)"/>
      <use xlink:href="#DejaVuSans-48" transform="translate(1080.910156 0.015625)"/>
      <use xlink:href="#DejaVuSans-47" transform="translate(1142.433594 0.015625)"/>
      <use xlink:href="#DejaVuSans-56" transform="translate(1205.910156 0.015625)"/>
      <use xlink:href="#DejaVuSans-3" transform="translate(1258.009766 0.015625)"/>
      <use xlink:href="#DejaVuSans-99" transform="translate(1289.796875 0.015625)"/>
      <use xlink:href="#DejaVuSans-3" transform="translate(1373.585938 0.015625)"/>
      <use xlink:href="#DejaVuSans-19" transform="translate(1405.373047 0.015625)"/>
      <use xlink:href="#DejaVuSans-3" transform="translate(1468.996094 0.015625)"/>
      <use xlink:href="#DejaVuSans-47" transform="translate(1500.783203 0.015625)"/>
      <use xlink:href="#DejaVuSans-55" transform="translate(1564.259766 0.015625)"/>
      <use xlink:href="#DejaVuSans-4c" transform="translate(1605.373047 0.015625)"/>
      <use xlink:href="#DejaVuSans-49" transform="translate(1633.15625 0.015625)"/>
      <use xlink:href="#DejaVuSans-57" transform="translate(1666.361328 0.015625)"/>
      <use xlink:href="#DejaVuSans-3" transform="translate(1705.570312 0.015625)"/>
      <use xlink:href="#DejaVuSans-4f" transform="translate(1737.357422 0.015625)"/>
      <use xlink:href="#DejaVuSans-48" transform="translate(1765.140625 0.015625)"/>
      <use xlink:href="#DejaVuSans-59" transform="translate(1826.664062 0.015625)"/>
      <use xlink:href="#DejaVuSans-48" transform="translate(1885.84375 0.015625)"/>
      <use xlink:href="#DejaVuSans-4f" transform="translate(1947.367188 0.015625)"/>
      <use xlink:href="#DejaVuSans-56" transform="translate(1975.150391 0.015625)"/>
      <use xlink:href="#DejaVuSans-c" transform="translate(2027.25 0.015625)"/>
     </g>
    </g>
   </g>
   <g id="patch_3">
    <path d="M 56.068438 331.597969 
L 56.068438 26.677969 
" style="fill: none; stroke: #000000; stroke-width: 0.8; stroke-linejoin: miter; stroke-linecap: square"/>
   </g>
   <g id="patch_4">
    <path d="M 502.468437 331.597969 
L 502.468437 26.677969 
" style="fill: none; stroke: #000000; stroke-width: 0.8; stroke-linejoin: miter; stroke-linecap: square"/>
   </g>
   <g id="patch_5">
    <path d="M 56.068438 331.597969 
L 502.468437 331.597969 
" style="fill: none; stroke: #000000; stroke-width: 0.8; stroke-linejoin: miter; stroke-linecap: square"/>
   </g>
   <g id="patch_6">
    <path d="M 56.068438 26.677969 
L 502.468437 26.677969 
" style="fill: none; stroke: #000000; stroke-width: 0.8; stroke-linejoin: miter; stroke-linecap: square"/>
   </g>
   <g id="patch_7">
    <path d="M 83.116033 72.830418 
Q 82.303279 73.007135 82.364531 72.993817 
" style="fill: none; stroke: #808080; stroke-width: 0.8; stroke-linecap: round"/>
    <path d="M 86.264776 73.987844 
L 82.364531 72.993817 
L 85.499899 70.470037 
" style="fill: none; stroke: #808080; stroke-width: 0.8; stroke-linecap: round"/>
   </g>
   <g id="text_14">
    <g id="patch_8">
     <path d="M 88.269748 77.384785 
L 160.266935 77.384785 
Q 162.966935 77.384785 162.966935 74.684785 
L 162.966935 53.080566 
Q 162.966935 50.380566 160.266935 50.380566 
L 88.269748 50.380566 
Q 85.569748 50.380566 85.569748 53.080566 
L 85.569748 74.684785 
Q 85.569748 77.384785 88.269748 77.384785 
z
" style="fill: #ffffff; opacity: 0.9; stroke: #d3d3d3; stroke-linejoin: miter"/>
    </g>
    <!-- M1 — Frozen RF -->
    <g transform="translate(88.269748 60.819336) scale(0.09 -0.09)">
     <defs>
      <path id="DejaVuSans-af6" d="M 313 1978 
L 6088 1978 
L 6088 1528 
L 313 1528 
L 313 1978 
z
" transform="scale(0.015625)"/>
      <path id="DejaVuSans-5d" d="M 353 3500 
L 3084 3500 
L 3084 2975 
L 922 459 
L 3084 459 
L 3084 0 
L 275 0 
L 275 525 
L 2438 3041 
L 353 3041 
L 353 3500 
z
" transform="scale(0.015625)"/>
      <path id="DejaVuSans-35" d="M 2841 2188 
Q 3044 2119 3236 1894 
Q 3428 1669 3622 1275 
L 4263 0 
L 3584 0 
L 2988 1197 
Q 2756 1666 2539 1819 
Q 2322 1972 1947 1972 
L 1259 1972 
L 1259 0 
L 628 0 
L 628 4666 
L 2053 4666 
Q 2853 4666 3247 4331 
Q 3641 3997 3641 3322 
Q 3641 2881 3436 2590 
Q 3231 2300 2841 2188 
z
M 1259 4147 
L 1259 2491 
L 2053 2491 
Q 2509 2491 2742 2702 
Q 2975 2913 2975 3322 
Q 2975 3731 2742 3939 
Q 2509 4147 2053 4147 
L 1259 4147 
z
" transform="scale(0.015625)"/>
     </defs>
     <use xlink:href="#DejaVuSans-30"/>
     <use xlink:href="#DejaVuSans-14" transform="translate(86.28125 0)"/>
     <use xlink:href="#DejaVuSans-3" transform="translate(149.90625 0)"/>
     <use xlink:href="#DejaVuSans-af6" transform="translate(181.6875 0)"/>
     <use xlink:href="#DejaVuSans-3" transform="translate(281.6875 0)"/>
     <use xlink:href="#DejaVuSans-29" transform="translate(313.46875 0)"/>
     <use xlink:href="#DejaVuSans-55" transform="translate(363.703125 0)"/>
     <use xlink:href="#DejaVuSans-52" transform="translate(402.609375 0)"/>
     <use xlink:href="#DejaVuSans-5d" transform="translate(463.796875 0)"/>
     <use xlink:href="#DejaVuSans-48" transform="translate(516.28125 0)"/>
     <use xlink:href="#DejaVuSans-51" transform="translate(577.8125 0)"/>
     <use xlink:href="#DejaVuSans-3" transform="translate(641.1875 0)"/>
     <use xlink:href="#DejaVuSans-35" transform="translate(672.96875 0)"/>
     <use xlink:href="#DejaVuSans-29" transform="translate(742.453125 0)"/>
    </g>
    <!-- Infer: 9.0 ms -->
    <g transform="translate(88.269748 71.621797) scale(0.09 -0.09)">
     <defs>
      <path id="DejaVuSans-2c" d="M 628 4666 
L 1259 4666 
L 1259 0 
L 628 0 
L 628 4666 
z
" transform="scale(0.015625)"/>
      <path id="DejaVuSans-1d" d="M 750 794 
L 1409 794 
L 1409 0 
L 750 0 
L 750 794 
z
M 750 3309 
L 1409 3309 
L 1409 2516 
L 750 2516 
L 750 3309 
z
" transform="scale(0.015625)"/>
      <path id="DejaVuSans-1c" d="M 703 97 
L 703 672 
Q 941 559 1184 500 
Q 1428 441 1663 441 
Q 2288 441 2617 861 
Q 2947 1281 2994 2138 
Q 2813 1869 2534 1725 
Q 2256 1581 1919 1581 
Q 1219 1581 811 2004 
Q 403 2428 403 3163 
Q 403 3881 828 4315 
Q 1253 4750 1959 4750 
Q 2769 4750 3195 4129 
Q 3622 3509 3622 2328 
Q 3622 1225 3098 567 
Q 2575 -91 1691 -91 
Q 1453 -91 1209 -44 
Q 966 3 703 97 
z
M 1959 2075 
Q 2384 2075 2632 2365 
Q 2881 2656 2881 3163 
Q 2881 3666 2632 3958 
Q 2384 4250 1959 4250 
Q 1534 4250 1286 3958 
Q 1038 3666 1038 3163 
Q 1038 2656 1286 2365 
Q 1534 2075 1959 2075 
z
" transform="scale(0.015625)"/>
     </defs>
     <use xlink:href="#DejaVuSans-2c"/>
     <use xlink:href="#DejaVuSans-51" transform="translate(29.5 0)"/>
     <use xlink:href="#DejaVuSans-49" transform="translate(92.875 0)"/>
     <use xlink:href="#DejaVuSans-48" transform="translate(128.078125 0)"/>
     <use xlink:href="#DejaVuSans-55" transform="translate(189.609375 0)"/>
     <use xlink:href="#DejaVuSans-1d" transform="translate(228.96875 0)"/>
     <use xlink:href="#DejaVuSans-3" transform="translate(262.65625 0)"/>
     <use xlink:href="#DejaVuSans-1c" transform="translate(294.4375 0)"/>
     <use xlink:href="#DejaVuSans-11" transform="translate(358.0625 0)"/>
     <use xlink:href="#DejaVuSans-13" transform="translate(389.84375 0)"/>
     <use xlink:href="#DejaVuSans-3" transform="translate(453.46875 0)"/>
     <use xlink:href="#DejaVuSans-50" transform="translate(485.25 0)"/>
     <use xlink:href="#DejaVuSans-56" transform="translate(582.65625 0)"/>
    </g>
   </g>
   <g id="patch_9">
    <path d="M 244.188845 288.967295 
Q 240.140246 287.392518 236.925235 286.14198 
" style="fill: none; stroke: #808080; stroke-width: 0.8; stroke-linecap: round"/>
    <path d="M 239.627843 289.124582 
L 236.925235 286.14198 
L 240.932881 285.769455 
" style="fill: none; stroke: #808080; stroke-width: 0.8; stroke-linecap: round"/>
   </g>
   <g id="text_15">
    <g id="patch_10">
     <path d="M 241.00528 317.1969 
L 323.09653 317.1969 
Q 325.79653 317.1969 325.79653 314.4969 
L 325.79653 292.891978 
Q 325.79653 290.191978 323.09653 290.191978 
L 241.00528 290.191978 
Q 238.30528 290.191978 238.30528 292.891978 
L 238.30528 314.4969 
Q 238.30528 317.1969 241.00528 317.1969 
z
" style="fill: #ffffff; opacity: 0.9; stroke: #d3d3d3; stroke-linejoin: miter"/>
    </g>
    <!-- M2 — Adaptive ET -->
    <g transform="translate(241.00528 300.63145) scale(0.09 -0.09)">
     <defs>
      <path id="DejaVuSans-28" d="M 628 4666 
L 3578 4666 
L 3578 4134 
L 1259 4134 
L 1259 2753 
L 3481 2753 
L 3481 2222 
L 1259 2222 
L 1259 531 
L 3634 531 
L 3634 0 
L 628 0 
L 628 4666 
z
" transform="scale(0.015625)"/>
      <path id="DejaVuSans-37" d="M -19 4666 
L 3928 4666 
L 3928 4134 
L 2272 4134 
L 2272 0 
L 1638 0 
L 1638 4134 
L -19 4134 
L -19 4666 
z
" transform="scale(0.015625)"/>
     </defs>
     <use xlink:href="#DejaVuSans-30"/>
     <use xlink:href="#DejaVuSans-15" transform="translate(86.28125 0)"/>
     <use xlink:href="#DejaVuSans-3" transform="translate(149.90625 0)"/>
     <use xlink:href="#DejaVuSans-af6" transform="translate(181.6875 0)"/>
     <use xlink:href="#DejaVuSans-3" transform="translate(281.6875 0)"/>
     <use xlink:href="#DejaVuSans-24" transform="translate(313.46875 0)"/>
     <use xlink:href="#DejaVuSans-47" transform="translate(380.125 0)"/>
     <use xlink:href="#DejaVuSans-44" transform="translate(443.609375 0)"/>
     <use xlink:href="#DejaVuSans-53" transform="translate(504.890625 0)"/>
     <use xlink:href="#DejaVuSans-57" transform="translate(568.375 0)"/>
     <use xlink:href="#DejaVuSans-4c" transform="translate(607.578125 0)"/>
     <use xlink:href="#DejaVuSans-59" transform="translate(635.359375 0)"/>
     <use xlink:href="#DejaVuSans-48" transform="translate(694.546875 0)"/>
     <use xlink:href="#DejaVuSans-3" transform="translate(756.078125 0)"/>
     <use xlink:href="#DejaVuSans-28" transform="translate(787.859375 0)"/>
     <use xlink:href="#DejaVuSans-37" transform="translate(851.046875 0)"/>
    </g>
    <!-- Infer: 9.1 ms -->
    <g transform="translate(241.00528 311.433911) scale(0.09 -0.09)">
     <use xlink:href="#DejaVuSans-2c"/>
     <use xlink:href="#DejaVuSans-51" transform="translate(29.5 0)"/>
     <use xlink:href="#DejaVuSans-49" transform="translate(92.875 0)"/>
     <use xlink:href="#DejaVuSans-48" transform="translate(128.078125 0)"/>
     <use xlink:href="#DejaVuSans-55" transform="translate(189.609375 0)"/>
     <use xlink:href="#DejaVuSans-1d" transform="translate(228.96875 0)"/>
     <use xlink:href="#DejaVuSans-3" transform="translate(262.65625 0)"/>
     <use xlink:href="#DejaVuSans-1c" transform="translate(294.4375 0)"/>
     <use xlink:href="#DejaVuSans-11" transform="translate(358.0625 0)"/>
     <use xlink:href="#DejaVuSans-14" transform="translate(389.84375 0)"/>
     <use xlink:href="#DejaVuSans-3" transform="translate(453.46875 0)"/>
     <use xlink:href="#DejaVuSans-50" transform="translate(485.25 0)"/>
     <use xlink:href="#DejaVuSans-56" transform="translate(582.65625 0)"/>
    </g>
   </g>
   <g id="patch_11">
    <path d="M 368.47959 219.497765 
Q 367.681782 219.61317 367.769187 219.600527 
" style="fill: none; stroke: #808080; stroke-width: 0.8; stroke-linecap: round"/>
    <path d="M 371.589795 220.866603 
L 367.769187 219.600527 
L 371.074413 217.303686 
" style="fill: none; stroke: #808080; stroke-width: 0.8; stroke-linecap: round"/>
   </g>
   <g id="text_16">
    <g id="patch_12">
     <path d="M 373.663196 223.929859 
L 488.705696 223.929859 
Q 491.405696 223.929859 491.405696 221.229859 
L 491.405696 199.624937 
Q 491.405696 196.924937 488.705696 196.924937 
L 373.663196 196.924937 
Q 370.963196 196.924937 370.963196 199.624937 
L 370.963196 221.229859 
Q 370.963196 223.929859 373.663196 223.929859 
z
" style="fill: #ffffff; opacity: 0.9; stroke: #d3d3d3; stroke-linejoin: miter"/>
    </g>
    <!-- M3 — Adaptive Ensemble -->
    <g transform="translate(373.663196 207.364409) scale(0.09 -0.09)">
     <defs>
      <path id="DejaVuSans-16" d="M 2597 2516 
Q 3050 2419 3304 2112 
Q 3559 1806 3559 1356 
Q 3559 666 3084 287 
Q 2609 -91 1734 -91 
Q 1441 -91 1130 -33 
Q 819 25 488 141 
L 488 750 
Q 750 597 1062 519 
Q 1375 441 1716 441 
Q 2309 441 2620 675 
Q 2931 909 2931 1356 
Q 2931 1769 2642 2001 
Q 2353 2234 1838 2234 
L 1294 2234 
L 1294 2753 
L 1863 2753 
Q 2328 2753 2575 2939 
Q 2822 3125 2822 3475 
Q 2822 3834 2567 4026 
Q 2313 4219 1838 4219 
Q 1578 4219 1281 4162 
Q 984 4106 628 3988 
L 628 4550 
Q 988 4650 1302 4700 
Q 1616 4750 1894 4750 
Q 2613 4750 3031 4423 
Q 3450 4097 3450 3541 
Q 3450 3153 3228 2886 
Q 3006 2619 2597 2516 
z
" transform="scale(0.015625)"/>
      <path id="DejaVuSans-45" d="M 3116 1747 
Q 3116 2381 2855 2742 
Q 2594 3103 2138 3103 
Q 1681 3103 1420 2742 
Q 1159 2381 1159 1747 
Q 1159 1113 1420 752 
Q 1681 391 2138 391 
Q 2594 391 2855 752 
Q 3116 1113 3116 1747 
z
M 1159 2969 
Q 1341 3281 1617 3432 
Q 1894 3584 2278 3584 
Q 2916 3584 3314 3078 
Q 3713 2572 3713 1747 
Q 3713 922 3314 415 
Q 2916 -91 2278 -91 
Q 1894 -91 1617 61 
Q 1341 213 1159 525 
L 1159 0 
L 581 0 
L 581 4863 
L 1159 4863 
L 1159 2969 
z
" transform="scale(0.015625)"/>
     </defs>
     <use xlink:href="#DejaVuSans-30"/>
     <use xlink:href="#DejaVuSans-16" transform="translate(86.28125 0)"/>
     <use xlink:href="#DejaVuSans-3" transform="translate(149.90625 0)"/>
     <use xlink:href="#DejaVuSans-af6" transform="translate(181.6875 0)"/>
     <use xlink:href="#DejaVuSans-3" transform="translate(281.6875 0)"/>
     <use xlink:href="#DejaVuSans-24" transform="translate(313.46875 0)"/>
     <use xlink:href="#DejaVuSans-47" transform="translate(380.125 0)"/>
     <use xlink:href="#DejaVuSans-44" transform="translate(443.609375 0)"/>
     <use xlink:href="#DejaVuSans-53" transform="translate(504.890625 0)"/>
     <use xlink:href="#DejaVuSans-57" transform="translate(568.375 0)"/>
     <use xlink:href="#DejaVuSans-4c" transform="translate(607.578125 0)"/>
     <use xlink:href="#DejaVuSans-59" transform="translate(635.359375 0)"/>
     <use xlink:href="#DejaVuSans-48" transform="translate(694.546875 0)"/>
     <use xlink:href="#DejaVuSans-3" transform="translate(756.078125 0)"/>
     <use xlink:href="#DejaVuSans-28" transform="translate(787.859375 0)"/>
     <use xlink:href="#DejaVuSans-51" transform="translate(851.046875 0)"/>
     <use xlink:href="#DejaVuSans-56" transform="translate(914.421875 0)"/>
     <use xlink:href="#DejaVuSans-48" transform="translate(966.515625 0)"/>
     <use xlink:href="#DejaVuSans-50" transform="translate(1028.046875 0)"/>
     <use xlink:href="#DejaVuSans-45" transform="translate(1125.453125 0)"/>
     <use xlink:href="#DejaVuSans-4f" transform="translate(1188.9375 0)"/>
     <use xlink:href="#DejaVuSans-48" transform="translate(1216.71875 0)"/>
    </g>
    <!-- Infer: 6.4 ms -->
    <g transform="translate(373.663196 218.16687) scale(0.09 -0.09)">
     <use xlink:href="#DejaVuSans-2c"/>
     <use xlink:href="#DejaVuSans-51" transform="translate(29.5 0)"/>
     <use xlink:href="#DejaVuSans-49" transform="translate(92.875 0)"/>
     <use xlink:href="#DejaVuSans-48" transform="translate(128.078125 0)"/>
     <use xlink:href="#DejaVuSans-55" transform="translate(189.609375 0)"/>
     <use xlink:href="#DejaVuSans-1d" transform="translate(228.96875 0)"/>
     <use xlink:href="#DejaVuSans-3" transform="translate(262.65625 0)"/>
     <use xlink:href="#DejaVuSans-19" transform="translate(294.4375 0)"/>
     <use xlink:href="#DejaVuSans-11" transform="translate(358.0625 0)"/>
     <use xlink:href="#DejaVuSans-17" transform="translate(389.84375 0)"/>
     <use xlink:href="#DejaVuSans-3" transform="translate(453.46875 0)"/>
     <use xlink:href="#DejaVuSans-50" transform="translate(485.25 0)"/>
     <use xlink:href="#DejaVuSans-56" transform="translate(582.65625 0)"/>
    </g>
   </g>
   <g id="text_17">
    <!-- Model Performance–Computation Trade-off -->
    <g transform="translate(140.386797 20.677969) scale(0.13 -0.13)">
     <defs>
      <path id="DejaVuSans-33" d="M 1259 4147 
L 1259 2394 
L 2053 2394 
Q 2494 2394 2734 2622 
Q 2975 2850 2975 3272 
Q 2975 3691 2734 3919 
Q 2494 4147 2053 4147 
L 1259 4147 
z
M 628 4666 
L 2053 4666 
Q 2838 4666 3239 4311 
Q 3641 3956 3641 3272 
Q 3641 2581 3239 2228 
Q 2838 1875 2053 1875 
L 1259 1875 
L 1259 0 
L 628 0 
L 628 4666 
z
" transform="scale(0.015625)"/>
      <path id="DejaVuSans-af5" d="M 313 1978 
L 2888 1978 
L 2888 1528 
L 313 1528 
L 313 1978 
z
" transform="scale(0.015625)"/>
      <path id="DejaVuSans-10" d="M 313 2009 
L 1997 2009 
L 1997 1497 
L 313 1497 
L 313 2009 
z
" transform="scale(0.015625)"/>
      <path id="DejaVuSans-13ae" d="M 4531 4863 
L 4531 4384 
L 3981 4384 
Q 3672 4384 3551 4259 
Q 3431 4134 3431 3809 
L 3431 3500 
L 4378 3500 
L 4378 3053 
L 3431 3053 
L 3431 0 
L 2853 0 
L 2853 3053 
L 1275 3053 
L 1275 0 
L 697 0 
L 697 3053 
L 147 3053 
L 147 3500 
L 697 3500 
L 697 3744 
Q 697 4328 969 4595 
Q 1241 4863 1831 4863 
L 2375 4863 
L 2375 4384 
L 1825 4384 
Q 1516 4384 1394 4259 
Q 1275 4134 1275 3809 
L 1275 3500 
L 2853 3500 
L 2853 3744 
Q 2853 4328 3125 4595 
Q 3397 4863 3988 4863 
L 4531 4863 
z
" transform="scale(0.015625)"/>
     </defs>
     <use xlink:href="#DejaVuSans-30"/>
     <use xlink:href="#DejaVuSans-52" transform="translate(86.28125 0)"/>
     <use xlink:href="#DejaVuSans-47" transform="translate(147.46875 0)"/>
     <use xlink:href="#DejaVuSans-48" transform="translate(210.953125 0)"/>
     <use xlink:href="#DejaVuSans-4f" transform="translate(272.484375 0)"/>
     <use xlink:href="#DejaVuSans-3" transform="translate(300.265625 0)"/>
     <use xlink:href="#DejaVuSans-33" transform="translate(332.046875 0)"/>
     <use xlink:href="#DejaVuSans-48" transform="translate(388.78125 0)"/>
     <use xlink:href="#DejaVuSans-55" transform="translate(450.3125 0)"/>
     <use xlink:href="#DejaVuSans-49" transform="translate(491.421875 0)"/>
     <use xlink:href="#DejaVuSans-52" transform="translate(526.625 0)"/>
     <use xlink:href="#DejaVuSans-55" transform="translate(587.8125 0)"/>
     <use xlink:href="#DejaVuSans-50" transform="translate(627.171875 0)"/>
     <use xlink:href="#DejaVuSans-44" transform="translate(724.578125 0)"/>
     <use xlink:href="#DejaVuSans-51" transform="translate(785.859375 0)"/>
     <use xlink:href="#DejaVuSans-46" transform="translate(849.234375 0)"/>
     <use xlink:href="#DejaVuSans-48" transform="translate(904.21875 0)"/>
     <use xlink:href="#DejaVuSans-af5" transform="translate(965.75 0)"/>
     <use xlink:href="#DejaVuSans-26" transform="translate(1015.75 0)"/>
     <use xlink:href="#DejaVuSans-52" transform="translate(1085.578125 0)"/>
     <use xlink:href="#DejaVuSans-50" transform="translate(1146.765625 0)"/>
     <use xlink:href="#DejaVuSans-53" transform="translate(1244.171875 0)"/>
     <use xlink:href="#DejaVuSans-58" transform="translate(1307.65625 0)"/>
     <use xlink:href="#DejaVuSans-57" transform="translate(1371.03125 0)"/>
     <use xlink:href="#DejaVuSans-44" transform="translate(1410.234375 0)"/>
     <use xlink:href="#DejaVuSans-57" transform="translate(1471.515625 0)"/>
     <use xlink:href="#DejaVuSans-4c" transform="translate(1510.71875 0)"/>
     <use xlink:href="#DejaVuSans-52" transform="translate(1538.5 0)"/>
     <use xlink:href="#DejaVuSans-51" transform="translate(1599.6875 0)"/>
     <use xlink:href="#DejaVuSans-3" transform="translate(1663.0625 0)"/>
     <use xlink:href="#DejaVuSans-37" transform="translate(1694.84375 0)"/>
     <use xlink:href="#DejaVuSans-55" transform="translate(1741.21875 0)"/>
     <use xlink:href="#DejaVuSans-44" transform="translate(1782.328125 0)"/>
     <use xlink:href="#DejaVuSans-47" transform="translate(1843.609375 0)"/>
     <use xlink:href="#DejaVuSans-48" transform="translate(1907.09375 0)"/>
     <use xlink:href="#DejaVuSans-10" transform="translate(1968.625 0)"/>
     <use xlink:href="#DejaVuSans-52" transform="translate(2006.5625 0)"/>
     <use xlink:href="#DejaVuSans-13ae" transform="translate(2067.75 0)"/>
    </g>
   </g>
   <g id="PathCollection_1">
    <defs>
     <path id="mcb8c072e5f" d="M 0 7.071068 
C 1.875269 7.071068 3.673985 6.326016 5 5 
C 6.326016 3.673985 7.071068 1.875269 7.071068 0 
C 7.071068 -1.875269 6.326016 -3.673985 5 -5 
C 3.673985 -6.326016 1.875269 -7.071068 0 -7.071068 
C -1.875269 -7.071068 -3.673985 -6.326016 -5 -5 
C -6.326016 -3.673985 -7.071068 -1.875269 -7.071068 0 
C -7.071068 1.875269 -6.326016 3.673985 -5 5 
C -3.673985 6.326016 -1.875269 7.071068 0 7.071068 
z
" style="stroke: #000000"/>
    </defs>
    <g clip-path="url(#p9a4c71f74f)">
     <use xlink:href="#mcb8c072e5f" x="81.490525" y="73.183852" style="fill: #1f77b4; stroke: #000000"/>
    </g>
   </g>
   <g id="PathCollection_2">
    <defs>
     <path id="m349943998d" d="M 0 7.071068 
C 1.875269 7.071068 3.673985 6.326016 5 5 
C 6.326016 3.673985 7.071068 1.875269 7.071068 0 
C 7.071068 -1.875269 6.326016 -3.673985 5 -5 
C 3.673985 -6.326016 1.875269 -7.071068 0 -7.071068 
C -1.875269 -7.071068 -3.673985 -6.326016 -5 -5 
C -6.326016 -3.673985 -7.071068 -1.875269 -7.071068 0 
C -7.071068 1.875269 -6.326016 3.673985 -5 5 
C -3.673985 6.326016 -1.875269 7.071068 0 7.071068 
z
" style="stroke: #000000"/>
    </defs>
    <g clip-path="url(#p9a4c71f74f)">
     <use xlink:href="#m349943998d" x="234.226057" y="285.092085" style="fill: #ff7f0e; stroke: #000000"/>
    </g>
   </g>
   <g id="PathCollection_3">
    <defs>
     <path id="m81e318e5b1" d="M 0 7.071068 
C 1.875269 7.071068 3.673985 6.326016 5 5 
C 6.326016 3.673985 7.071068 1.875269 7.071068 0 
C 7.071068 -1.875269 6.326016 -3.673985 5 -5 
C 3.673985 -6.326016 1.875269 -7.071068 0 -7.071068 
C -1.875269 -7.071068 -3.673985 -6.326016 -5 -5 
C -6.326016 -3.673985 -7.071068 -1.875269 -7.071068 0 
C -7.071068 1.875269 -6.326016 3.673985 -5 5 
C -3.673985 6.326016 -1.875269 7.071068 0 7.071068 
z
" style="stroke: #000000"/>
    </defs>
    <g clip-path="url(#p9a4c71f74f)">
     <use xlink:href="#m81e318e5b1" x="366.883973" y="219.728574" style="fill: #2ca02c; stroke: #000000"/>
    </g>
   </g>
  </g>
 </g>
 <defs>
  <clipPath id="p9a4c71f74f">
   <rect x="56.068438" y="26.677969" width="446.4" height="304.92"/>
  </clipPath>
 </defs>
</svg>
